# xmcd CD database file
#
# Track frame offsets:
#	182
#	16032
#	50232
#	72497
#
# Disc length: 1296 seconds
#
# Revision: 0
# Processed by: cddbd v1.5.1PL0 Copyright (c) Steve Scherf et al.
# Submitted via: CDex 1.51
#
DISCID=32050e04
DTITLE=Neo - The Pink Panther Theme
DYEAR=1998
DGENRE=New Age
TTITLE0=The Pink Panther Theme (Adaptation) - Radio Version
TTITLE1=The Pinkbeat
TTITLE2=The Pink Panther Theme (Adaptation) - Steve Lyon Mix
TTITLE3=The Pink Panther Theme (Adaptation) - New Rockers Remix
EXTD=YEAR: 1998
EXTT0=
EXTT1=
EXTT2=
EXTT3=
PLAYORDER=
